<svg width="1200" height="630" viewBox="0 0 1200 630" fill="none" xmlns="http://www.w3.org/2000/svg">
  <defs>
    <linearGradient id="bg" x1="80" y1="60" x2="1100" y2="570" gradientUnits="userSpaceOnUse">
      <stop stop-color="#0A1822"/>
      <stop offset="0.58" stop-color="#11293A"/>
      <stop offset="1" stop-color="#18342B"/>
    </linearGradient>
    <linearGradient id="panel" x1="86" y1="104" x2="920" y2="488" gradientUnits="userSpaceOnUse">
      <stop stop-color="#163043" stop-opacity="0.96"/>
      <stop offset="1" stop-color="#173E32" stop-opacity="0.92"/>
    </linearGradient>
    <linearGradient id="screen" x1="812" y1="196" x2="924" y2="348" gradientUnits="userSpaceOnUse">
      <stop stop-color="#EDF8FF"/>
      <stop offset="1" stop-color="#D5EEF6"/>
    </linearGradient>
    <filter id="shadow" x="0" y="0" width="1200" height="630" filterUnits="userSpaceOnUse" color-interpolation-filters="sRGB">
      <feDropShadow dx="0" dy="18" stdDeviation="18" flood-color="#000000" flood-opacity="0.28"/>
    </filter>
  </defs>

  <rect width="1200" height="630" rx="32" fill="url(#bg)"/>
  <circle cx="1040" cy="128" r="132" fill="#78D7FF" fill-opacity="0.08"/>
  <circle cx="152" cy="556" r="176" fill="#AAEFB4" fill-opacity="0.07"/>
  <ellipse cx="720" cy="520" rx="396" ry="90" fill="#D6FFF0" fill-opacity="0.04"/>

  <g filter="url(#shadow)">
    <rect x="70" y="92" width="880" height="378" rx="34" fill="url(#panel)" stroke="#8ECFEA" stroke-opacity="0.24" stroke-width="4"/>
  </g>

  <rect x="134" y="154" width="176" height="50" rx="25" fill="#2A4E67"/>
  <rect x="322" y="154" width="152" height="50" rx="25" fill="#345E42"/>
  <text x="160" y="186" fill="#DDF3FF" font-family="Verdana, Geneva, sans-serif" font-size="23" font-weight="700">COMMUNITY</text>
  <text x="350" y="186" fill="#E1FFD4" font-family="Verdana, Geneva, sans-serif" font-size="23" font-weight="700">HELTEC V4</text>

  <text x="128" y="280" fill="#F5FBFF" font-family="Verdana, Geneva, sans-serif" font-size="68" font-weight="700">Meshtastic Pager OS</text>
  <text x="130" y="338" fill="#A6E4FF" font-family="Verdana, Geneva, sans-serif" font-size="32" font-weight="700">Simple message pager built on the Meshtastic radio stack</text>
  <text x="130" y="392" fill="#D7E7EF" font-family="Verdana, Geneva, sans-serif" font-size="24">Receive. Read. Confirm. Return to low power.</text>
  <text x="130" y="428" fill="#D7E7EF" font-family="Verdana, Geneva, sans-serif" font-size="24">No carousel. No device-side setup. No extra clutter.</text>

  <g opacity="0.88">
    <path d="M720 236C766 236 806 260 838 304" stroke="#69D6FF" stroke-width="6" stroke-linecap="round"/>
    <path d="M694 220C756 220 816 251 860 316" stroke="#69D6FF" stroke-opacity="0.78" stroke-width="6" stroke-linecap="round"/>
    <path d="M666 206C746 206 824 246 884 332" stroke="#69D6FF" stroke-opacity="0.56" stroke-width="6" stroke-linecap="round"/>
  </g>

  <g>
    <rect x="778" y="184" width="164" height="258" rx="28" fill="#07151E" stroke="#A2F0C4" stroke-width="5"/>
    <rect x="794" y="204" width="132" height="218" rx="20" fill="url(#screen)"/>
    <rect x="824" y="244" width="72" height="16" rx="8" fill="#4C7D95"/>
    <rect x="818" y="292" width="76" height="12" rx="6" fill="#A2BACA"/>
    <rect x="818" y="324" width="82" height="12" rx="6" fill="#A2BACA"/>
    <rect x="818" y="356" width="62" height="12" rx="6" fill="#A2BACA"/>
    <rect x="818" y="388" width="84" height="12" rx="6" fill="#A2BACA"/>
    <rect x="817" y="430" width="86" height="40" rx="12" fill="#14374B"/>
    <text x="835" y="456" fill="#E7F7FF" font-family="Verdana, Geneva, sans-serif" font-size="18" font-weight="700">PAGER</text>
  </g>

  <g transform="translate(980 124)">
    <path d="M34 0H80L104 540H60L52 354L30 540H0L24 176L34 0Z" fill="#6B7580"/>
    <rect x="40" y="72" width="22" height="178" rx="11" fill="#B2BEC8"/>
    <path d="M-14 214H106" stroke="#7E8993" stroke-width="10" stroke-linecap="round"/>
    <path d="M4 284H92" stroke="#7E8993" stroke-width="10" stroke-linecap="round" opacity="0.76"/>
    <path d="M24 154H84" stroke="#7E8993" stroke-width="8" stroke-linecap="round" opacity="0.74"/>
  </g>

  <g transform="translate(1026 352)">
    <path d="M0 0H54V22L42 34H12L0 22V0Z" fill="#0F1C24"/>
    <rect x="8" y="8" width="38" height="52" rx="10" fill="#0B1A23" stroke="#8EE4F6" stroke-width="4"/>
    <rect x="15" y="16" width="24" height="32" rx="6" fill="#DDEFF7"/>
    <rect x="19" y="22" width="16" height="4" rx="2" fill="#62859A"/>
    <rect x="19" y="31" width="14" height="4" rx="2" fill="#A6B9C7"/>
    <rect x="19" y="39" width="12" height="4" rx="2" fill="#A6B9C7"/>
  </g>
</svg>
