<svg width="1600" height="520" viewBox="0 0 1600 520" fill="none" xmlns="http://www.w3.org/2000/svg">
  <defs>
    <linearGradient id="bg" x1="0" y1="0" x2="1600" y2="520" gradientUnits="userSpaceOnUse">
      <stop stop-color="#0A1320"/>
      <stop offset="0.58" stop-color="#112235"/>
      <stop offset="1" stop-color="#16362F"/>
    </linearGradient>
    <linearGradient id="chipBlue" x1="0" y1="0" x2="1" y2="1">
      <stop stop-color="#173B5C"/>
      <stop offset="1" stop-color="#23597D"/>
    </linearGradient>
    <linearGradient id="chipGreen" x1="0" y1="0" x2="1" y2="1">
      <stop stop-color="#183F39"/>
      <stop offset="1" stop-color="#2A5B47"/>
    </linearGradient>
    <linearGradient id="frame" x1="0" y1="0" x2="1" y2="1">
      <stop stop-color="#67D8FF"/>
      <stop offset="1" stop-color="#9AF7B3"/>
    </linearGradient>
  </defs>

  <rect width="1600" height="520" rx="28" fill="url(#bg)"/>
  <rect x="74" y="72" width="1452" height="376" rx="28" fill="#0D1C2B" fill-opacity="0.42" stroke="#D6E6F2" stroke-opacity="0.12"/>
  <path d="M0 382C188 330 340 316 500 334C685 356 816 430 1012 426C1228 421 1383 351 1600 318V520H0V382Z" fill="#08131D" fill-opacity="0.56"/>
  <circle cx="1378" cy="92" r="118" fill="#53D4F9" fill-opacity="0.08"/>
  <circle cx="262" cy="420" r="148" fill="#9FF4A4" fill-opacity="0.06"/>

  <rect x="148" y="124" width="168" height="38" rx="19" fill="url(#chipBlue)"/>
  <text x="232" y="148" text-anchor="middle" fill="#D7F2FF" font-family="Verdana, Geneva, sans-serif" font-size="18" font-weight="700">COMMUNITY FORK</text>

  <rect x="332" y="124" width="150" height="38" rx="19" fill="url(#chipGreen)"/>
  <text x="407" y="148" text-anchor="middle" fill="#E2FFD8" font-family="Verdana, Geneva, sans-serif" font-size="18" font-weight="700">AI ASSISTED</text>

  <text x="148" y="232" fill="white" font-family="Verdana, Geneva, sans-serif" font-size="58" font-weight="700">Pager Mode Fork</text>
  <text x="148" y="282" fill="#A9E7FF" font-family="Verdana, Geneva, sans-serif" font-size="26" font-weight="700">Heltec V3 / V4 small-screen firmware fork</text>

  <text x="148" y="336" fill="#D8E3EB" font-family="Verdana, Geneva, sans-serif" font-size="24">
    <tspan x="148" dy="0">Focused UI changes and ready build targets.</tspan>
    <tspan x="148" dy="34">Community-maintained, openly AI-assisted.</tspan>
  </text>

  <g transform="translate(1206 122)">
    <rect x="0" y="0" width="208" height="276" rx="28" fill="#08111C" stroke="url(#frame)" stroke-width="3"/>
    <rect x="18" y="18" width="172" height="240" rx="18" fill="#F3F8FB"/>
    <rect x="42" y="42" width="124" height="20" rx="10" fill="#2E5F7A"/>
    <rect x="42" y="84" width="96" height="12" rx="6" fill="#A8BCC8"/>
    <rect x="42" y="108" width="112" height="12" rx="6" fill="#A8BCC8"/>
    <rect x="42" y="132" width="104" height="12" rx="6" fill="#A8BCC8"/>
    <rect x="42" y="156" width="86" height="12" rx="6" fill="#A8BCC8"/>
    <rect x="42" y="196" width="90" height="38" rx="12" fill="#173A4D"/>
    <text x="87" y="221" text-anchor="middle" fill="#D8F3FF" font-family="Verdana, Geneva, sans-serif" font-size="18" font-weight="700">PAGER</text>
  </g>

  <g opacity="0.72">
    <path d="M1036 232C1082 198 1144 198 1190 232" stroke="#59DFFF" stroke-width="4" stroke-linecap="round"/>
    <path d="M1012 204C1070 160 1148 160 1206 204" stroke="#59DFFF" stroke-width="4" stroke-linecap="round" opacity="0.82"/>
    <path d="M986 174C1058 120 1158 120 1230 174" stroke="#59DFFF" stroke-width="4" stroke-linecap="round" opacity="0.58"/>
  </g>
</svg>
